<svg width="248" height="151" viewBox="0 0 248 151" fill="none" xmlns="http://www.w3.org/2000/svg">
<path d="M37.8404 2.59119L41.7352 14.032H53.9062L43.926 21.3346L47.8207 32.7754L37.8404 25.7162L28.1036 32.7754L31.9983 21.3346L22.0181 14.032H34.1891L37.8404 2.59119Z" fill="url(#paint0_linear_361_30)"/>
<path d="M61.209 19.8741L63.6432 27.4201H71.6761L65.1038 32.0451L67.7814 39.5912L61.209 34.9662L54.8801 39.5912L57.3143 32.0451L50.9854 27.4201H58.7748L61.209 19.8741Z" fill="url(#paint1_linear_361_30)"/>
<path d="M14.7156 19.8741L17.1499 27.4201H24.9393L18.6104 32.0451L21.0446 39.5912L14.7156 34.9662L8.14327 39.5912L10.5775 32.0451L4.24854 27.4201H12.2814L14.7156 19.8741Z" fill="url(#paint2_linear_361_30)"/>
<path d="M108.749 30.5108C108.749 38.4049 101.872 42.1824 95.0429 42.1824C88.3112 42.1824 81.6763 38.5502 81.6763 31.6247C81.6763 27.3145 84.3883 23.0526 89.1345 21.9872L89.2313 22.2293C85.8897 23.3916 84.0009 26.8302 84.0009 30.4624C84.0009 37.8722 89.6672 41.5528 95.3335 41.5528C100.903 41.5528 106.424 37.969 106.424 30.753C106.376 18.8877 86.713 18.6939 86.713 7.89407C86.713 2.42149 90.9264 0 95.3819 0C97.2223 0 99.0626 0.387439 100.709 1.16232C102.017 1.69505 102.937 2.32463 103.567 2.32463C104.051 2.32463 104.39 1.9372 104.535 0.968598H104.777V7.31291H104.535C103.324 2.71207 99.1595 0.532728 95.3335 0.532728C91.5075 0.532728 87.9722 2.71207 87.9722 6.87704C87.9722 17.4832 108.749 17.7738 108.749 30.5108ZM120.921 33.7072C120.921 35.935 121.89 35.9834 124.263 35.9834V36.3224H116.902V35.9834C119.275 35.9834 120.243 35.935 120.243 33.7072V8.32994C120.243 6.10217 119.275 6.05374 116.902 6.05374V5.71473H121.842L134.724 31.2857L147.17 5.71473H151.82V6.05374C149.447 6.05374 148.478 6.10217 148.478 8.32994V33.7072C148.478 35.935 149.447 35.9834 151.82 35.9834V36.3224H143.151V35.9834C145.524 35.9834 146.492 35.935 146.492 33.7072V8.47523L134.337 33.6103H133.658L120.921 8.28151V33.7072ZM164.719 32.109C163.266 35.6444 164.186 35.935 167.092 35.935V36.274H159.053V35.935C161.619 35.935 162.298 35.935 163.557 33.0776L175.616 5.6663H176.391L184.188 23.2463H192.954C205.594 23.2463 205.594 6.24746 192.954 6.24746H180.652L180.41 5.71473H192.954C207.676 5.71473 208.548 21.745 195.52 23.6338C204.286 25.3773 205.11 35.9834 208.839 35.9834V36.274H204.674C202.64 31.8669 199.346 23.8759 192.954 23.8759H184.43L188.498 32.9808C189.806 35.4991 190.145 35.935 192.76 35.935V36.274H184.866V35.935C187.675 35.935 187.675 35.596 185.883 31.5279L182.444 23.8759H168.351L164.719 32.109ZM175.374 7.99093L168.642 23.2463H182.202L175.374 7.99093ZM230.552 33.7072C230.552 35.935 231.521 35.9834 233.894 35.9834V36.3224H225.225V35.9834C227.598 35.9834 228.567 35.935 228.567 33.7072V6.24746H221.35C217.089 6.29589 217.089 6.53804 216.411 12.9792H216.023L216.459 5.71473H242.66L243.096 12.9792H242.756C242.078 6.44118 242.078 6.24746 237.526 6.24746H230.552V33.7072Z" fill="url(#paint3_linear_361_30)"/>
<path d="M50.6654 139.355C50.6654 145.067 53.0248 145.191 59.1095 145.191V146.061H37.0059V145.191C43.0906 145.191 45.4499 145.067 45.4499 139.355V74.286C45.4499 68.5739 43.0906 68.4497 37.0059 68.4497V67.5805H50.6654V101.605C50.6654 107.317 53.0248 107.193 59.1095 107.193H64.3249C99.2188 107.193 103.813 53.5484 53.0248 53.5484C-8.93987 53.5484 -4.84201 124.578 34.5223 131.284L34.3981 132.153C-11.2992 129.173 -17.5081 52.1824 53.0248 52.1824C110.767 52.1824 107.29 108.559 64.3249 108.559H50.6654V139.355ZM216.983 66.3387C257.465 66.3387 257.465 129.918 216.983 129.918C176.377 129.918 176.377 66.3387 216.983 66.3387ZM245.916 137.492C234.988 147.551 223.688 150.655 212.016 150.655C167.312 150.655 156.881 108.559 128.692 107.938V139.231C128.692 144.819 131.176 144.943 137.261 144.943V145.812H115.033V144.943C121.118 144.943 123.601 144.819 123.601 139.231V74.0377C123.601 68.4497 121.118 68.3255 115.033 68.3255V67.4563H144.835C169.05 67.4563 176.749 79.5015 176.749 89.3115C176.749 102.847 166.442 111.664 153.404 111.664C151.665 111.664 149.927 111.539 148.064 111.167C166.07 121.722 181.095 147.302 215.493 147.302C226.172 147.302 235.734 144.322 245.295 136.747L245.916 137.492ZM214.996 68.4497C181.84 68.4497 185.814 127.807 218.97 127.807C252.125 127.807 248.027 68.4497 214.996 68.4497ZM141.731 108.187C144.711 109.18 147.567 109.552 150.299 109.552C162.22 109.552 171.41 101.108 171.41 88.4423C171.41 78.5081 162.717 68.8222 144.96 68.8222H128.692V106.696H133.039C136.019 106.696 138.875 107.193 141.607 108.187H141.731Z" fill="url(#paint4_linear_361_30)"/>
<defs>
<linearGradient id="paint0_linear_361_30" x1="22.0181" y1="2.59119" x2="53.9062" y2="2.59119" gradientUnits="userSpaceOnUse">
<stop stop-color="#FBB040"/>
<stop offset="1" stop-color="#F9ED32"/>
</linearGradient>
<linearGradient id="paint1_linear_361_30" x1="50.9854" y1="19.8741" x2="71.6761" y2="19.8741" gradientUnits="userSpaceOnUse">
<stop stop-color="#FBB040"/>
<stop offset="1" stop-color="#F9ED32"/>
</linearGradient>
<linearGradient id="paint2_linear_361_30" x1="4.24854" y1="19.8741" x2="24.9393" y2="19.8741" gradientUnits="userSpaceOnUse">
<stop stop-color="#FBB040"/>
<stop offset="1" stop-color="#F9ED32"/>
</linearGradient>
<linearGradient id="paint3_linear_361_30" x1="81.6763" y1="0" x2="243.096" y2="0" gradientUnits="userSpaceOnUse">
<stop stop-color="#FBB040"/>
<stop offset="1" stop-color="#F9ED32"/>
</linearGradient>
<linearGradient id="paint4_linear_361_30" x1="0" y1="52.1824" x2="247.344" y2="52.1824" gradientUnits="userSpaceOnUse">
<stop stop-color="#FBB040"/>
<stop offset="1" stop-color="#F9ED32"/>
</linearGradient>
</defs>
</svg>
